<?xml version="1.0" standalone="no"?>
<!DOCTYPE svg PUBLIC "-//W3C//DTD SVG 20010904//EN"
 "http://www.w3.org/TR/2001/REC-SVG-20010904/DTD/svg10.dtd">
<svg version="1.0" xmlns="http://www.w3.org/2000/svg"
 width="500.000000pt" height="500.000000pt" viewBox="0 0 500.000000 500.000000"
 preserveAspectRatio="xMidYMid meet">
<metadata>
Created by potrace 1.11, written by Peter Selinger 2001-2013
</metadata>
<g transform="translate(0.000000,500.000000) scale(0.100000,-0.100000)"
fill="#000000" stroke="none">
<path d="M0 4728 c0 -212 3 -269 12 -260 21 21 49 13 89 -23 37 -33 60 -40
117 -35 39 3 151 57 218 106 64 45 202 196 264 289 19 28 58 80 87 116 29 36
53 69 53 73 0 3 -189 6 -420 6 l-420 0 0 -272z"/>
<path d="M1446 4978 c-4 -13 -10 -107 -13 -210 l-6 -187 -25 20 c-15 11 -33
17 -44 13 -13 -4 -27 3 -44 21 -32 35 -67 28 -114 -24 -19 -21 -52 -47 -72
-59 l-38 -21 0 44 c0 67 -33 100 -100 100 -46 0 -55 -4 -81 -32 -17 -20 -38
-33 -52 -33 -33 0 -113 -44 -142 -78 -12 -15 -32 -38 -44 -51 -12 -13 -21 -27
-21 -31 0 -4 -15 -14 -32 -21 -18 -7 -67 -45 -108 -84 -41 -40 -127 -106 -190
-147 -132 -87 -201 -110 -269 -90 -46 14 -51 15 -51 3 0 -5 21 -14 46 -20 61
-16 136 1 206 45 29 18 83 51 120 74 37 22 100 72 140 111 40 39 89 79 108 89
19 10 52 41 73 68 44 58 121 112 161 112 18 0 38 11 57 31 66 71 159 39 159
-55 0 -35 -5 -48 -22 -60 -41 -29 -54 -12 -18 24 27 27 25 49 -6 60 -50 20
-114 -47 -114 -119 0 -83 50 -141 120 -141 24 0 80 51 80 72 0 7 -12 -2 -26
-19 -25 -33 -46 -39 -91 -27 -31 9 -29 16 10 37 19 10 49 43 68 72 22 35 47
60 71 72 20 10 47 33 60 52 13 19 36 39 51 44 24 8 33 5 56 -17 18 -17 36 -25
55 -23 42 3 70 -38 67 -99 0 -26 -7 -54 -13 -61 -36 -44 -118 -52 -118 -12 0
22 4 23 30 9 15 -8 22 -5 34 12 9 12 16 32 16 43 0 29 -36 65 -64 65 -31 0
-100 -61 -134 -118 -22 -39 -27 -58 -26 -114 0 -51 5 -72 19 -88 10 -11 16
-22 13 -25 -3 -3 -31 -10 -61 -15 -128 -20 -210 -85 -240 -188 -10 -34 -21
-79 -24 -100 -12 -74 -44 -112 -96 -112 -43 0 -61 41 -53 122 3 37 2 68 -3 68
-11 0 -21 -50 -21 -109 0 -88 78 -131 142 -78 21 17 32 40 43 92 28 124 34
140 64 186 36 53 89 83 180 99 46 8 78 22 115 48 62 46 98 62 134 62 28 -1 62
-20 62 -37 0 -17 -44 -49 -92 -67 -27 -10 -48 -22 -48 -28 0 -6 8 -7 18 -3 9
4 31 12 47 17 17 6 51 28 77 50 57 46 101 66 162 72 54 5 104 -7 139 -34 16
-12 45 -22 74 -24 100 -7 162 -52 163 -118 0 -20 4 -39 10 -43 16 -10 43 -111
37 -137 -4 -14 -29 -48 -55 -76 -40 -42 -53 -50 -73 -45 -36 9 -69 43 -69 72
l0 25 28 -27 c35 -34 55 -34 81 -1 43 55 10 148 -67 185 -35 18 -53 20 -100
14 -31 -4 -68 -13 -80 -22 -22 -13 -26 -13 -45 5 -38 34 -69 45 -127 44 -30 0
-72 4 -93 9 -52 14 -95 -9 -148 -78 -54 -70 -74 -83 -126 -83 -23 0 -45 -5
-48 -11 -11 -16 -4 -17 60 -8 64 8 64 8 156 120 40 47 26 45 184 36 120 -7
148 -29 189 -150 31 -93 28 -146 -12 -177 -13 -11 -30 -20 -37 -20 -7 0 -25
-6 -41 -14 -32 -17 -55 -9 -80 30 -14 20 -15 30 -6 49 7 14 18 25 27 25 12 0
13 -3 4 -19 -18 -27 -4 -51 29 -51 23 0 32 7 45 35 28 60 23 106 -18 148 -43
44 -86 48 -155 14 -34 -17 -50 -33 -69 -72 -32 -64 -38 -129 -17 -179 9 -21
13 -43 10 -48 -11 -17 -135 -69 -167 -70 -54 -2 -81 60 -41 93 16 13 18 29 4
29 -16 0 -43 -48 -42 -76 0 -14 9 -35 20 -46 34 -34 84 -27 203 29 144 69 149
70 255 33 49 -17 105 -35 124 -40 66 -17 113 -98 75 -130 -8 -7 -20 -30 -25
-51 -6 -21 -19 -43 -30 -49 -23 -13 -65 2 -74 26 -9 24 -2 28 23 12 52 -32 73
42 26 90 -52 52 -141 45 -231 -17 -33 -23 -69 -41 -81 -41 -12 0 -25 -4 -28
-10 -4 -6 16 -9 52 -8 47 1 71 -5 124 -30 64 -31 67 -33 94 -99 16 -38 41 -86
57 -107 45 -64 33 -140 -33 -199 -47 -43 -101 -51 -119 -18 -15 29 -12 87 5
101 19 16 34 5 17 -12 -19 -19 -14 -56 10 -69 18 -10 24 -8 40 11 10 12 19 32
19 44 1 11 3 32 4 46 4 29 -28 102 -60 136 -29 31 -67 44 -132 46 -44 1 -60
-3 -95 -28 -55 -39 -80 -75 -88 -126 l-6 -43 -38 40 c-38 40 -38 40 -22 8 9
-18 39 -50 66 -70 27 -20 54 -50 60 -66 l10 -30 -43 7 c-39 5 -40 5 -23 -9 11
-8 24 -15 29 -15 27 0 77 -53 87 -93 6 -23 17 -57 25 -75 8 -18 15 -52 15 -76
0 -41 -4 -48 -49 -85 -27 -23 -53 -41 -59 -41 -6 0 -20 12 -32 27 -23 30 -24
83 -1 91 8 3 11 0 7 -6 -4 -6 -4 -23 0 -37 5 -20 11 -24 28 -19 82 24 43 157
-65 218 -63 35 -106 34 -155 -5 -21 -17 -45 -41 -54 -53 -8 -13 -37 -42 -63
-65 -39 -33 -56 -41 -89 -41 -40 0 -108 32 -108 51 0 5 -17 17 -39 28 -48 25
-66 64 -56 128 11 74 50 118 82 92 11 -10 10 -15 -7 -31 -27 -26 -25 -54 6
-83 31 -29 42 -30 90 -10 46 19 76 84 82 181 5 85 -12 154 -68 263 -61 121
-111 160 -257 201 -87 25 -118 25 -184 -2 -73 -29 -105 -52 -162 -112 -89 -93
-123 -185 -133 -356 -10 -174 29 -339 108 -457 45 -66 162 -188 207 -215 20
-11 75 -45 122 -75 66 -41 100 -56 149 -64 35 -5 68 -13 73 -16 27 -17 257 15
312 44 11 6 35 13 52 16 58 11 171 97 290 218 63 64 152 143 197 173 71 49 86
56 114 50 17 -4 32 -9 32 -13 0 -3 -24 -19 -53 -34 -68 -35 -167 -163 -226
-290 -33 -72 -56 -105 -118 -169 -86 -88 -118 -107 -141 -85 -12 13 -12 19 2
45 9 17 21 32 28 35 7 2 9 8 5 13 -15 16 -57 -44 -57 -82 0 -38 16 -50 55 -40
34 9 185 164 212 217 12 24 38 77 57 117 33 67 98 157 136 189 8 7 36 25 62
39 46 26 128 112 128 134 0 6 18 37 40 70 32 47 51 63 97 85 32 14 93 44 136
66 43 21 85 39 93 39 22 0 87 -35 108 -59 13 -15 31 -21 58 -21 56 0 76 -15
104 -73 33 -71 31 -115 -6 -162 -16 -21 -30 -46 -30 -57 0 -51 -50 -98 -104
-98 -26 0 -56 28 -56 53 0 20 26 23 32 5 4 -10 10 -10 31 -1 57 26 61 152 6
212 -30 33 -31 34 -100 29 -54 -4 -80 -12 -118 -35 -28 -18 -67 -32 -95 -35
-48 -6 -125 -51 -135 -79 -2 -7 10 -1 28 13 50 43 152 63 179 36 18 -18 14
-73 -6 -91 -23 -21 -39 -22 -22 -2 15 18 6 45 -14 45 -24 0 -93 -71 -131 -135
-31 -52 -69 -150 -70 -180 0 -19 -47 -47 -103 -62 -62 -16 -157 -69 -188 -105
-17 -20 -16 -20 16 3 53 40 129 77 185 90 28 7 64 23 81 35 16 13 51 33 76 44
45 19 49 20 88 4 22 -9 40 -20 38 -25 -2 -5 -22 -19 -45 -31 -66 -36 -137 -89
-157 -117 l-19 -26 24 21 c13 11 56 42 96 68 63 42 82 49 165 62 51 9 108 20
126 25 29 10 38 7 87 -26 42 -28 55 -42 55 -61 0 -14 14 -52 31 -85 27 -51 32
-72 32 -128 0 -107 -30 -167 -92 -186 -12 -4 -39 -18 -58 -31 -41 -27 -79 -30
-128 -10 -37 16 -55 42 -55 80 0 31 26 35 35 6 9 -27 41 -43 74 -35 89 19 112
166 38 245 -34 36 -83 46 -142 30 -44 -12 -66 -32 -152 -136 -29 -35 -54 -54
-81 -62 -46 -14 -76 -61 -116 -186 -22 -67 -26 -96 -26 -204 l0 -125 -49 -66
c-100 -135 -174 -322 -169 -424 2 -41 8 -62 18 -67 8 -4 32 -15 53 -24 30 -13
43 -27 59 -64 26 -58 27 -121 3 -262 -35 -205 -110 -351 -263 -509 -38 -39
-58 -67 -50 -70 28 -9 212 227 256 329 11 25 27 62 36 82 24 59 59 284 53 355
-7 87 -42 146 -99 165 -42 14 -43 16 -48 64 -5 48 13 139 31 159 5 5 9 16 9
25 0 23 55 135 101 204 23 34 61 74 83 90 23 16 52 46 64 67 70 121 167 173
219 117 33 -36 35 -87 6 -125 -13 -18 -31 -33 -39 -33 -20 0 -17 13 6 28 34
21 19 92 -19 92 -41 0 -94 -101 -93 -176 0 -54 10 -80 38 -108 15 -15 13 -23
-20 -91 -20 -41 -36 -79 -36 -83 0 -12 -70 -92 -81 -92 -5 0 -14 11 -21 24 -9
21 -7 31 11 62 12 20 19 39 17 42 -10 9 -35 -19 -46 -53 -9 -27 -8 -40 5 -64
8 -17 21 -31 28 -31 35 0 97 86 137 190 15 40 88 153 122 190 13 14 39 46 58
72 28 38 45 50 87 63 29 8 58 24 66 35 26 37 104 118 132 136 17 11 58 22 99
26 39 4 90 10 112 14 38 6 45 3 82 -30 41 -38 57 -74 47 -107 -4 -10 -14 -19
-23 -19 -9 0 -26 -12 -38 -27 -14 -17 -26 -24 -37 -20 -21 8 -22 37 -2 37 8 0
21 13 29 29 14 26 14 30 -3 45 -44 40 -148 0 -189 -73 -21 -36 -28 -41 -60
-41 -20 -1 -50 -6 -66 -13 -26 -11 -21 -13 50 -11 43 1 84 3 89 5 19 6 54 -12
59 -29 2 -9 7 -40 11 -67 5 -43 3 -55 -15 -78 -35 -44 -56 -51 -80 -27 -23 23
-18 49 6 29 22 -18 44 7 44 52 0 35 -3 39 -36 48 -28 8 -46 6 -92 -11 -67 -25
-124 -75 -196 -173 -93 -125 -108 -182 -87 -336 14 -108 41 -162 108 -225 82
-76 160 -112 259 -120 68 -6 83 -4 97 10 27 27 20 36 -15 19 -50 -25 -171 -6
-240 38 -68 43 -139 114 -160 159 -16 33 -40 120 -33 120 1 0 23 -11 47 -25
143 -80 333 -81 458 -4 25 16 61 37 82 48 38 22 112 118 161 212 57 110 73
302 38 442 -23 86 -41 125 -85 181 -27 35 -31 48 -31 100 0 62 4 70 89 216 33
56 69 149 82 215 35 169 76 249 174 336 60 53 72 69 90 124 24 71 88 177 120
197 11 7 20 18 20 24 0 7 21 27 48 46 44 31 72 44 177 78 22 7 65 33 96 57 71
55 119 66 154 33 14 -13 25 -31 25 -39 0 -9 12 -33 26 -54 32 -47 29 -92 -6
-119 -15 -11 -33 -16 -43 -12 -23 8 -12 24 18 24 12 0 26 7 29 15 8 23 -40 91
-75 105 -25 11 -34 9 -71 -10 -63 -32 -121 -83 -143 -124 -11 -20 -25 -36 -33
-36 -7 0 -35 -21 -62 -46 -43 -41 -52 -45 -66 -33 -14 12 -16 11 -13 -6 7 -36
42 -28 89 20 49 50 67 54 146 30 27 -8 68 -15 90 -15 66 0 83 -21 89 -109 l5
-74 -36 -34 c-57 -54 -114 -58 -114 -7 0 24 2 26 34 20 39 -8 66 12 66 48 0
56 -95 88 -167 56 -43 -19 -90 -69 -99 -106 -5 -21 -12 -24 -50 -24 -51 0
-121 -30 -155 -67 -22 -23 -20 -23 31 7 67 40 129 49 164 26 14 -9 31 -16 39
-16 22 0 57 -45 63 -82 5 -26 1 -41 -18 -64 -13 -16 -31 -46 -41 -67 -19 -43
-59 -67 -85 -50 -19 11 -29 53 -13 53 6 0 11 -4 11 -10 0 -16 26 -11 43 8 10
10 17 35 17 55 0 47 -37 79 -83 70 -81 -14 -193 -116 -222 -202 -30 -89 -12
-196 37 -222 28 -15 61 -4 97 31 28 29 98 66 107 57 2 -2 0 -36 -5 -76 -12
-93 -45 -161 -91 -184 -34 -17 -35 -17 -54 5 l-18 23 3 -25 c8 -56 107 -22
144 50 8 16 20 62 25 102 6 40 16 90 22 112 16 52 96 137 171 182 71 42 123
93 119 115 -4 21 34 106 65 147 14 18 36 37 49 42 13 5 24 16 24 25 0 8 4 15
8 15 4 0 41 32 82 71 116 110 145 124 266 125 56 1 125 7 153 14 73 17 114 8
178 -41 86 -67 124 -118 125 -171 1 -58 -18 -91 -90 -161 -69 -65 -95 -71
-136 -31 -41 42 -28 77 15 38 42 -38 109 16 109 89 0 71 -70 116 -159 102 -25
-4 -66 -7 -91 -7 -24 1 -55 -5 -67 -14 -13 -8 -53 -17 -89 -19 -72 -5 -113
-21 -161 -65 -47 -42 -41 -45 15 -7 44 31 118 57 162 57 27 0 110 -43 133 -68
10 -11 21 -38 24 -59 5 -37 2 -42 -45 -81 -52 -44 -70 -50 -90 -30 -19 19 -15
40 8 33 11 -3 30 1 44 11 21 13 25 22 20 43 -9 36 -43 71 -70 71 -51 0 -194
-86 -257 -154 -87 -95 -136 -226 -117 -312 14 -63 9 -74 -38 -74 -56 0 -77 26
-68 87 5 36 3 44 -5 36 -7 -7 -12 -33 -13 -58 -1 -38 3 -50 24 -67 21 -17 34
-19 78 -15 69 7 110 35 246 162 135 126 165 145 233 145 28 0 64 -5 79 -10 20
-8 48 -7 98 2 105 18 160 16 185 -6 12 -11 21 -27 21 -36 0 -9 18 -33 40 -53
36 -32 40 -40 40 -82 0 -41 -5 -51 -46 -95 -26 -28 -52 -50 -59 -50 -6 0 -25
-11 -41 -25 -21 -19 -36 -24 -54 -19 -32 7 -60 33 -60 54 0 26 12 31 31 14 36
-33 96 2 109 63 24 104 -73 164 -212 129 -111 -29 -166 -62 -263 -160 -49 -50
-99 -109 -110 -131 -20 -39 -23 -40 -80 -46 -66 -6 -142 -36 -185 -72 -17 -15
-59 -31 -107 -42 -166 -38 -299 -144 -337 -270 -21 -69 -45 -100 -92 -115 -75
-25 -191 -197 -258 -384 -59 -163 -107 -235 -222 -336 -68 -60 -112 -84 -180
-101 -58 -14 -79 -29 -41 -29 84 0 227 92 323 208 65 78 87 119 139 261 73
196 162 328 250 366 54 24 73 51 104 148 17 50 135 171 193 197 25 11 76 27
114 35 82 19 124 34 124 46 0 5 28 23 62 40 72 36 139 42 208 16 25 -9 71 -19
102 -23 106 -10 208 -109 189 -182 -4 -15 -10 -26 -14 -24 -4 1 -13 2 -21 2
-8 0 -23 13 -32 29 -21 35 -74 65 -74 41 0 -5 7 -10 14 -10 8 0 28 -17 43 -37
15 -21 34 -43 41 -49 21 -16 32 -93 20 -146 -5 -27 -13 -48 -18 -48 -5 0 -22
-22 -38 -49 -42 -67 -83 -95 -129 -86 -44 8 -85 50 -81 84 4 36 22 36 33 -1 9
-29 14 -33 43 -31 65 3 110 78 90 150 -15 56 -52 96 -113 128 -52 26 -62 27
-133 21 -103 -8 -162 -38 -245 -125 -53 -55 -77 -91 -116 -173 -40 -85 -58
-111 -102 -148 -61 -52 -117 -86 -162 -99 l-32 -9 36 -1 c39 -1 92 30 169 99
55 50 152 100 193 100 17 0 39 -8 50 -17 14 -13 33 -17 69 -16 48 2 50 1 64
-32 31 -74 8 -179 -42 -191 -40 -10 -69 0 -72 24 -3 21 -2 22 17 10 29 -18 55
0 59 39 2 24 -3 36 -25 53 -32 25 -89 24 -156 -2 -80 -31 -215 -195 -294 -358
-48 -97 -73 -205 -73 -309 0 -171 58 -282 173 -331 45 -20 63 -22 138 -17 115
7 176 34 238 104 60 67 100 148 114 229 9 53 8 66 -6 88 -34 52 -13 180 46
273 23 37 104 112 173 159 71 50 358 174 403 174 12 0 49 9 84 21 34 11 88 24
121 27 33 4 61 12 63 18 4 12 -133 -6 -197 -26 -19 -6 -50 -11 -68 -12 -18 -1
-35 -5 -38 -9 -3 -5 -18 -6 -34 -2 -19 3 -30 1 -30 -5 0 -6 8 -9 17 -6 15 5
16 4 3 -5 -22 -16 -38 -13 -62 11 -12 12 -31 24 -42 25 -18 3 -18 2 3 -16 13
-11 28 -22 34 -24 6 -2 7 -8 4 -14 -5 -8 -16 -4 -34 13 -14 13 -32 24 -40 24
-8 0 -11 4 -8 10 3 5 0 7 -7 5 -7 -3 -18 -15 -24 -28 -5 -12 -16 -21 -23 -19
-7 1 -20 -3 -29 -10 -13 -11 -15 -10 -9 4 4 12 0 21 -13 28 -11 6 -17 16 -14
24 3 7 -2 16 -11 20 -13 5 -15 1 -9 -16 5 -18 3 -20 -12 -13 -11 4 -31 10 -47
13 -15 2 -57 20 -94 38 -36 19 -71 34 -77 34 -6 0 -23 11 -38 24 -26 25 -38
24 -38 0 0 -7 8 -15 18 -17 9 -3 4 -5 -13 -6 -65 -2 -75 6 -75 63 1 61 19 142
51 225 l24 61 63 0 c34 0 77 -6 96 -14 49 -20 103 -73 116 -112 17 -51 -9
-117 -52 -135 -27 -11 -32 -10 -45 6 -7 11 -11 25 -9 31 3 7 -2 18 -11 25 -13
11 -18 10 -34 -10 -27 -33 -24 -65 12 -105 63 -72 142 -56 208 43 20 30 44 66
54 80 15 22 17 39 13 107 -5 65 -3 84 9 94 30 25 8 110 -42 163 -29 30 -21 34
37 17 19 -6 136 -13 260 -16 124 -2 233 -7 243 -10 9 -3 17 -1 17 4 0 13 -110
24 -265 27 -149 3 -267 14 -260 24 2 4 -17 6 -43 5 -27 -1 -56 4 -69 12 -13 8
-48 14 -83 14 -112 0 -124 25 -56 116 82 111 188 191 298 225 76 23 114 24
160 5 44 -19 58 -35 65 -79 4 -29 1 -40 -20 -61 -31 -31 -57 -33 -64 -6 -7 26
-17 25 -43 -2 -38 -41 -15 -90 51 -109 37 -12 41 -11 67 14 16 15 33 27 40 27
17 0 88 73 107 110 26 51 15 106 -30 149 -21 19 -42 47 -47 62 -12 34 -68 63
-112 56 -17 -2 -58 -10 -90 -17 -44 -8 -70 -9 -102 -1 -62 16 -130 14 -166 -5
-17 -9 -89 -69 -160 -133 -117 -105 -161 -140 -180 -141 -3 0 -11 21 -17 48
-15 63 -1 138 43 216 l33 61 49 -2 c295 -12 800 -22 842 -17 l52 6 0 1269 0
1269 -1721 0 -1722 0 7 -132 c3 -73 13 -173 21 -223 8 -49 20 -123 26 -164 6
-41 19 -96 30 -123 10 -27 19 -51 19 -53 0 -2 -15 -1 -32 1 -18 3 -53 -1 -78
-10 -59 -20 -61 -17 -84 123 -16 93 -18 147 -14 346 3 129 4 235 3 235 -2 0
-6 -10 -9 -22z m-416 -420 c0 -5 -5 -6 -11 -2 -15 9 -29 -14 -29 -49 0 -32 24
-46 51 -29 32 20 32 13 0 -27 -39 -49 -86 -69 -101 -41 -16 30 -12 103 8 126
31 38 82 52 82 22z m314 -41 c11 -8 17 -23 14 -38 -2 -20 -8 -24 -35 -21 -37
4 -47 -8 -38 -48 5 -24 13 -31 40 -36 29 -5 41 -1 75 26 23 18 42 31 43 29 2
-2 10 -39 18 -82 18 -90 10 -103 -39 -67 -27 20 -34 21 -83 11 -29 -7 -67 -23
-85 -36 -37 -28 -61 -24 -75 12 -25 66 1 151 68 221 41 44 67 51 97 29z m515
-471 c27 -14 81 -85 81 -106 0 -22 -31 -70 -44 -70 -8 0 -26 14 -40 31 -22 26
-29 29 -41 19 -28 -23 -11 -81 35 -117 24 -19 75 -15 95 7 25 28 32 26 56 -22
29 -57 177 -202 264 -259 39 -25 100 -60 136 -77 82 -39 94 -53 128 -144 37
-99 73 -149 195 -272 108 -109 210 -182 366 -263 52 -27 101 -52 108 -57 10
-6 3 -17 -27 -43 -55 -46 -95 -107 -124 -184 -24 -65 -50 -86 -60 -50 -3 12
-13 24 -24 28 -10 3 -20 10 -23 14 -3 4 -21 15 -40 26 -19 11 -39 28 -44 39
-9 20 -79 74 -96 74 -5 0 -21 16 -36 35 -14 19 -31 35 -36 35 -6 0 -30 18 -55
40 -30 26 -50 37 -57 31 -8 -7 -11 6 -11 43 0 75 -38 152 -87 177 -20 10 -47
19 -59 19 -23 0 -84 46 -84 64 0 6 6 14 15 17 16 7 14 8 -35 24 -9 2 -18 13
-21 22 -20 57 -69 155 -88 171 -11 11 -47 34 -79 50 -71 38 -123 77 -205 156
-87 84 -167 184 -183 229 -7 20 -15 37 -19 37 -3 0 -5 33 -5 72 0 49 -7 88
-20 121 -15 36 -17 52 -9 65 20 31 126 42 173 18z m-287 -97 c34 -18 51 -73
37 -119 -15 -48 -29 -63 -49 -49 -11 8 -12 12 -2 16 17 7 15 40 -4 47 -28 11
-39 6 -57 -23 -24 -42 -22 -56 20 -97 l37 -37 -30 6 c-28 5 -78 -2 -115 -17
-21 -9 -49 48 -49 101 0 40 37 130 61 149 38 30 115 42 151 23z m153 -236 c64
-119 275 -324 405 -392 25 -13 51 -29 58 -35 12 -9 112 -207 112 -221 0 -3
-12 -2 -26 1 -20 5 -49 -5 -118 -38 -50 -25 -115 -56 -145 -69 -45 -20 -61
-34 -101 -94 -26 -38 -53 -83 -61 -100 -8 -16 -20 -30 -27 -29 -6 1 -35 2 -62
3 l-51 1 21 22 c11 12 20 30 20 40 0 11 5 15 15 12 22 -9 18 9 -6 24 -19 12
-19 14 -4 25 20 16 11 43 -18 52 -20 7 -20 8 -3 12 10 3 22 -1 26 -7 4 -7 13
-9 19 -6 16 10 13 36 -4 36 -24 0 -17 20 10 30 32 12 32 28 0 26 -14 0 -25 -5
-25 -10 0 -4 -7 -5 -16 -2 -11 4 -20 -5 -31 -32 -9 -20 -18 -31 -20 -24 -7 19
-23 14 -23 -8 0 -13 7 -20 19 -20 11 0 23 -5 27 -11 4 -8 0 -9 -15 -4 -11 3
-29 2 -38 -4 -14 -8 -15 -11 -3 -12 8 -1 18 -1 22 0 4 0 7 -10 6 -24 -2 -19
-8 -25 -26 -25 -15 0 -26 -7 -29 -20 -6 -23 -23 -27 -23 -5 0 18 -27 20 -33 3
-2 -7 -8 -9 -13 -5 -5 4 -4 11 2 15 29 19 -17 85 -46 67 -5 -3 -15 6 -20 21
-8 21 -8 29 2 36 7 4 9 8 3 8 -5 0 -11 19 -12 41 0 23 -6 46 -12 52 -14 14
-15 -7 -1 -33 7 -13 7 -21 0 -25 -5 -3 -10 2 -10 12 0 10 -12 27 -27 37 -16 9
-20 15 -10 12 11 -3 20 0 23 9 4 8 13 15 21 15 12 0 12 3 -2 16 -8 9 -22 13
-30 10 -9 -3 -12 0 -8 10 3 7 15 14 28 14 12 0 28 7 35 15 14 17 34 9 26 -11
-3 -8 0 -11 10 -7 16 6 19 23 5 23 -6 0 -10 8 -10 18 -2 42 -6 71 -12 77 -13
13 -59 -7 -59 -26 0 -21 -15 -25 -26 -8 -3 6 -1 15 6 19 7 4 10 12 6 18 -9 16
68 26 91 12 33 -21 93 -116 93 -149 0 -38 -19 -81 -37 -81 -15 0 -18 26 -3 35
13 8 13 42 -1 50 -24 16 -58 -5 -68 -42 -6 -20 -8 -39 -6 -43 2 -3 6 -19 9
-35 7 -39 17 -46 69 -52 41 -5 46 -3 87 38 78 79 94 171 41 232 -16 18 -42 63
-56 100 -30 74 -58 101 -137 133 -27 10 -48 22 -48 26 0 13 86 55 125 61 31 5
48 2 73 -13 31 -19 55 -57 45 -72 -8 -14 -33 -8 -33 7 0 26 -29 16 -36 -12 -8
-32 4 -54 39 -71 39 -19 61 -2 100 76 27 54 32 73 25 98 -10 41 -49 82 -85 90
-15 3 -61 18 -102 33 l-74 27 54 23 c30 12 61 26 69 31 23 13 24 13 45 -27z
m-306 -474 c-19 -12 -39 -11 -39 2 0 6 7 9 15 5 8 -3 15 -1 15 5 0 6 5 7 11 3
8 -4 7 -9 -2 -15z m96 -18 c3 -5 1 -12 -5 -16 -5 -3 -10 1 -10 9 0 18 6 21 15
7z m-165 -5 c0 -2 -8 -10 -17 -17 -16 -13 -17 -12 -4 4 13 16 21 21 21 13z
m140 -16 c0 -5 -4 -10 -10 -10 -5 0 -10 5 -10 10 0 6 5 10 10 10 6 0 10 -4 10
-10z m40 -36 c0 -2 -7 -4 -15 -4 -8 0 -15 4 -15 10 0 5 7 7 15 4 8 -4 15 -8
15 -10z m-220 -64 c0 -5 -2 -10 -4 -10 -3 0 -8 5 -11 10 -3 6 -1 10 4 10 6 0
11 -4 11 -10z m53 -64 c3 3 8 1 11 -4 3 -6 0 -12 -7 -15 -7 -3 -20 9 -30 27
-17 31 -17 31 2 9 10 -12 21 -20 24 -17z m23 -76 c8 0 14 -7 14 -15 0 -12 -5
-13 -24 -4 -16 8 -22 17 -18 27 4 11 7 12 10 4 2 -7 10 -12 18 -12z m356 -2
c-7 -7 -12 -8 -12 -2 0 14 12 26 19 19 2 -3 -1 -11 -7 -17z m-262 2 c0 -5 -4
-10 -10 -10 -5 0 -10 5 -10 10 0 6 5 10 10 10 6 0 10 -4 10 -10z m-57 -70 c3
-11 1 -20 -4 -20 -5 0 -9 4 -9 9 0 5 -3 17 -7 27 -4 11 -3 15 4 11 6 -4 13
-16 16 -27z m963 -56 c31 -32 34 -41 34 -93 0 -45 -4 -62 -20 -76 -18 -16 -20
-16 -26 -1 -10 25 -43 19 -54 -10 -13 -34 12 -83 43 -86 69 -4 109 16 127 65
6 18 18 47 26 64 l14 33 82 -83 c90 -90 202 -176 322 -247 76 -45 76 -45 70
-80 -10 -58 -49 -144 -110 -242 -57 -90 -59 -95 -59 -164 0 -66 2 -73 34 -109
19 -22 45 -63 59 -93 29 -65 49 -209 31 -226 -7 -6 -9 -7 -6 -1 3 6 -1 18 -8
28 -11 15 -17 16 -39 6 -19 -9 -24 -17 -20 -34 5 -20 2 -21 -28 -18 -31 4 -31
3 -12 -9 12 -7 19 -19 16 -27 -3 -10 -6 -10 -12 -1 -4 7 -16 10 -25 8 -17 -3
-18 -4 -2 -20 9 -9 17 -22 17 -28 0 -16 -28 14 -39 42 -7 15 -10 18 -10 7 -1
-28 -32 -32 -57 -8 -13 12 -21 26 -17 32 4 6 -2 8 -15 5 -23 -6 -35 11 -21 33
7 11 9 11 9 -3 0 -11 7 -17 18 -15 17 2 29 22 14 22 -5 0 -16 8 -26 18 -27 27
-36 21 -36 -25 0 -51 -13 -42 -16 11 -1 22 -7 47 -14 58 -9 14 -10 14 -6 2 4
-16 2 -16 -35 0 -21 9 -39 19 -39 23 0 3 12 21 27 38 17 21 32 30 45 27 10 -3
16 -1 13 4 -7 11 40 23 61 15 8 -3 12 -10 9 -16 -3 -5 -1 -10 6 -10 10 0 10
-3 2 -11 -9 -9 -16 -8 -28 5 -9 9 -21 16 -28 16 -6 0 -3 -6 8 -13 17 -13 17
-15 -3 -35 -12 -12 -17 -22 -12 -22 6 0 16 -11 22 -25 15 -34 50 -32 81 5 14
17 29 30 33 30 18 0 44 35 44 60 0 35 -36 88 -80 118 -29 20 -42 23 -80 17
-25 -4 -76 -10 -115 -15 -70 -7 -125 -26 -125 -42 0 -4 -7 -8 -16 -8 -8 0 -13
-4 -9 -9 3 -5 0 -13 -6 -17 -7 -4 -9 -3 -5 4 3 6 1 14 -6 18 -7 5 -3 10 13 17
23 8 22 10 -26 33 -47 22 -48 23 -20 25 l30 1 -30 9 c-16 5 -44 7 -62 4 -17
-3 -34 -1 -38 5 -3 6 -11 7 -17 4 -6 -4 -13 -3 -17 2 -3 5 -18 17 -33 27 -16
10 -28 23 -28 30 0 8 2 9 8 1 12 -19 65 -40 105 -43 40 -3 97 15 97 30 0 4 18
14 41 20 70 21 109 101 109 222 0 40 -8 69 -30 113 -16 32 -30 72 -30 87 0 29
-36 71 -71 82 -11 4 -19 10 -19 15 0 19 -54 19 -135 -1 l-88 -20 -26 24 c-45
42 -84 49 -137 26 l-46 -19 7 37 c15 81 130 253 169 253 6 0 5 -5 -2 -12 -7
-7 -12 -20 -12 -30 0 -25 38 -23 67 4 27 25 31 82 8 115 -13 18 -13 22 3 36
21 19 92 39 161 46 7 0 29 -15 47 -35z m-656 6 c0 -17 -2 -19 -14 -8 -10 9
-11 15 -2 20 16 11 16 10 16 -12z m-175 0 c3 -5 1 -10 -4 -10 -6 0 -11 5 -11
10 0 6 2 10 4 10 3 0 8 -4 11 -10z m55 -110 c0 -5 -4 -10 -10 -10 -5 0 -10 5
-10 10 0 6 5 10 10 10 6 0 10 -4 10 -10z m1951 -180 c13 -7 19 -21 19 -43 0
-36 -18 -70 -27 -49 -2 6 -16 12 -29 12 -21 0 -24 -5 -24 -33 0 -18 5 -38 12
-45 14 -14 98 -16 98 -2 0 6 5 10 10 10 6 0 10 -9 10 -20 0 -11 -4 -20 -9 -20
-5 0 -22 -20 -38 -43 -18 -29 -42 -49 -68 -60 -50 -21 -55 -21 -72 1 -13 15
-13 15 -3 -5 6 -13 9 -23 8 -24 -2 0 -19 -2 -38 -3 -31 -3 -32 -2 -12 7 28 13
29 27 1 27 -12 0 -17 4 -13 11 4 8 0 8 -15 0 -19 -11 -22 -9 -27 19 -6 27 -8
28 -19 14 -11 -16 -12 -15 -17 2 -11 42 22 115 75 168 76 75 133 99 178 76z
m229 -16 c17 -3 30 -8 30 -10 0 -19 -27 -46 -58 -59 -20 -9 -54 -29 -74 -45
-20 -17 -40 -30 -44 -30 -15 0 6 74 31 105 14 19 25 39 25 45 0 7 11 10 30 6
17 -3 44 -9 60 -12z m-785 -135 c11 -16 1 -19 -13 -3 -7 8 -8 14 -3 14 5 0 13
-5 16 -11z m348 -190 c53 -27 54 -28 37 -39 -36 -23 -90 5 -90 47 0 17 4 17
53 -8z m-1076 -35 c50 -24 67 -56 65 -122 -1 -30 -7 -60 -13 -66 -9 -8 -10 -6
-6 7 4 11 3 16 -3 12 -6 -3 -10 -15 -10 -25 0 -12 -9 -22 -24 -26 -38 -9 -60
-1 -66 26 -12 53 -70 31 -70 -26 0 -28 -5 -35 -25 -40 -29 -7 -31 -16 -10 -34
13 -11 14 -10 8 6 -6 17 -5 17 10 6 26 -22 10 -44 -27 -36 -27 6 -29 5 -18 -9
10 -12 10 -16 0 -21 -10 -5 -10 -7 0 -12 17 -8 5 -24 -20 -24 -16 0 -18 3 -9
14 17 21 2 46 -27 46 l-26 0 22 16 c17 12 20 19 12 29 -6 7 -8 19 -4 28 4 12
-2 15 -30 15 -19 0 -39 3 -45 6 -5 4 -12 2 -16 -4 -3 -5 -16 -10 -28 -11 -12
0 -16 -3 -9 -6 19 -7 14 -22 -7 -20 -17 1 -17 4 -5 32 8 20 19 30 33 29 12 0
21 3 21 7 0 4 9 10 19 14 11 3 52 44 91 91 93 110 143 133 217 98z m-297 -253
c0 -5 -7 -11 -15 -15 -9 -3 -15 0 -15 9 0 8 7 15 15 15 8 0 15 -4 15 -9z
m-104 -67 c-4 -9 -9 -15 -11 -12 -3 3 -3 13 1 22 4 9 9 15 11 12 3 -3 3 -13
-1 -22z m104 2 c0 -3 -4 -8 -10 -11 -5 -3 -10 -1 -10 4 0 6 5 11 10 11 6 0 10
-2 10 -4z m190 -16 c9 -6 10 -10 3 -10 -6 0 -14 -10 -16 -22 -3 -18 -5 -17 -6
7 -1 22 -4 26 -13 17 -14 -14 -28 -16 -28 -3 0 8 13 14 40 20 3 0 12 -4 20 -9z
m1840 -251 c-17 -49 -33 -121 -37 -170 -7 -76 -10 -84 -28 -81 -11 2 -28 11
-37 19 -21 19 -109 11 -145 -13 -13 -8 -23 -12 -23 -9 0 4 16 40 35 82 44 96
137 202 207 237 28 14 53 25 54 23 2 -2 -10 -41 -26 -88z m-1690 37 c0 -2 -7
-9 -15 -16 -13 -11 -14 -10 -9 4 5 14 24 23 24 12z m-50 -21 c0 -8 -4 -15 -8
-15 -5 0 -9 7 -9 15 0 8 4 15 9 15 4 0 8 -7 8 -15z m-70 -40 c0 -8 -4 -15 -10
-15 -5 0 -7 7 -4 15 4 8 8 15 10 15 2 0 4 -7 4 -15z m764 -129 c-3 -15 -8 -25
-11 -23 -2 3 -1 17 3 31 3 15 8 25 11 23 2 -3 1 -17 -3 -31z m-424 14 c8 -5
11 -12 7 -17 -5 -4 -12 -2 -16 5 -4 7 -15 10 -24 6 -10 -3 -17 -1 -17 5 0 13
29 14 50 1z m400 -17 c0 -22 -2 -25 -10 -13 -13 20 -13 40 0 40 6 0 10 -12 10
-27z m-430 -11 c-6 -2 -10 -10 -10 -18 0 -10 -6 -8 -21 7 -11 11 -27 18 -35
15 -8 -3 -14 -1 -14 5 0 7 10 9 26 5 15 -4 23 -3 20 3 -3 5 5 4 19 -2 13 -7
20 -13 15 -15z m-106 -17 c-4 -8 -13 -15 -22 -15 -13 0 -12 3 4 15 24 18 25
18 18 0z m296 -19 c0 -3 -4 -8 -10 -11 -5 -3 -10 -1 -10 4 0 6 5 11 10 11 6 0
10 -2 10 -4z m-68 -28 c-7 -7 -12 -8 -12 -2 0 14 12 26 19 19 2 -3 -1 -11 -7
-17z m328 2 c0 -5 -4 -10 -10 -10 -5 0 -10 5 -10 10 0 6 5 10 10 10 6 0 10 -4
10 -10z m-472 -6 c-9 -8 30 -44 48 -44 8 0 13 -4 10 -9 -9 -14 -55 -1 -50 14
4 10 -1 12 -16 8 -20 -5 -21 -4 -11 16 7 11 15 21 18 21 3 0 4 -3 1 -6z m108
-40 c-9 -9 -20 -14 -23 -10 -4 3 2 13 13 20 25 18 31 12 10 -10z m89 6 c3 -6
-1 -7 -9 -4 -18 7 -21 14 -7 14 6 0 13 -4 16 -10z m265 -7 c0 -5 -5 -15 -10
-23 -8 -12 -10 -11 -10 8 0 12 5 22 10 22 6 0 10 -3 10 -7z m-370 -33 c0 -5
-5 -10 -11 -10 -5 0 -7 5 -4 10 3 6 8 10 11 10 2 0 4 -4 4 -10z m1707 -36 c-3
-3 -12 -4 -19 -1 -8 3 -5 6 6 6 11 1 17 -2 13 -5z m-210 -26 c-3 -8 -6 -5 -6
6 -1 11 2 17 5 13 3 -3 4 -12 1 -19z m437 1 c-8 -14 -24 -10 -24 6 0 9 6 12
15 9 8 -4 12 -10 9 -15z m-556 -11 c12 -7 22 -21 22 -33 0 -29 -9 -36 -30 -23
-36 23 -69 -39 -38 -70 7 -7 29 -12 50 -12 22 0 40 -5 42 -12 24 -90 42 -139
58 -166 17 -28 22 -31 36 -20 17 15 16 6 -14 -92 -26 -86 -27 -105 -10 -138
17 -32 23 -137 7 -128 -4 3 -6 -6 -3 -19 3 -17 0 -25 -10 -25 -8 0 -25 -12
-39 -26 -22 -24 -28 -26 -88 -20 -67 6 -86 14 -138 64 -39 35 -40 45 -12 73
25 25 19 50 -10 42 -23 -6 -28 -19 -9 -25 10 -4 9 -9 -3 -21 -12 -12 -19 -13
-28 -4 -14 14 -14 30 0 21 8 -4 8 0 0 15 -7 11 -15 21 -20 21 -10 0 -29 43
-36 80 -3 14 -7 36 -10 50 -11 57 -16 198 -6 204 6 4 7 14 4 23 -5 11 -3 14 6
9 10 -7 11 4 6 47 l-7 55 51 52 c32 32 72 60 108 75 57 24 77 24 121 3z m599
6 c-3 -3 -12 -4 -19 -1 -8 3 -5 6 6 6 11 1 17 -2 13 -5z m-27 -18 c0 -3 -4 -8
-10 -11 -5 -3 -10 -1 -10 4 0 6 5 11 10 11 6 0 10 -2 10 -4z m-186 -85 c3 -5
0 -11 -7 -14 -8 -3 -14 1 -14 9 0 16 13 19 21 5z m-696 -107 c-14 -51 -5 -228
17 -318 23 -97 48 -142 121 -213 52 -50 72 -63 114 -72 69 -15 80 -14 123 8
20 10 37 16 37 11 0 -14 -63 -96 -102 -131 -48 -44 -85 -56 -197 -65 -68 -6
-83 -5 -76 6 5 9 4 11 -4 6 -16 -10 -83 13 -75 26 4 7 2 8 -4 4 -19 -11 -47
10 -68 51 -10 21 -25 44 -31 51 -7 7 -13 19 -14 25 0 7 -3 21 -6 32 -3 11 -8
61 -10 111 -5 101 20 231 57 304 35 69 122 212 126 208 2 -2 -1 -22 -8 -44z
m82 -414 c0 -5 -2 -10 -4 -10 -3 0 -8 5 -11 10 -3 6 -1 10 4 10 6 0 11 -4 11
-10z"/>
<path d="M2360 3060 c0 -5 5 -10 10 -10 6 0 10 5 10 10 0 6 -4 10 -10 10 -5 0
-10 -4 -10 -10z"/>
<path d="M2393 3025 c0 -8 4 -12 9 -9 5 3 6 10 3 15 -9 13 -12 11 -12 -6z"/>
<path d="M1555 3190 c-3 -5 1 -10 10 -10 9 0 13 5 10 10 -3 6 -8 10 -10 10 -2
0 -7 -4 -10 -10z"/>
<path d="M1570 2900 c0 -5 5 -10 11 -10 5 0 7 5 4 10 -3 6 -8 10 -11 10 -2 0
-4 -4 -4 -10z"/>
<path d="M1830 2880 c0 -6 7 -10 15 -10 8 0 15 2 15 4 0 2 -7 6 -15 10 -8 3
-15 1 -15 -4z"/>
<path d="M2415 1850 c-3 -5 -1 -10 4 -10 6 0 11 5 11 10 0 6 -2 10 -4 10 -3 0
-8 -4 -11 -10z"/>
<path d="M2348 1833 c7 -3 16 -2 19 1 4 3 -2 6 -13 5 -11 0 -14 -3 -6 -6z"/>
<path d="M2400 1790 c0 -5 4 -10 9 -10 5 0 18 -3 28 -6 16 -6 16 -5 -2 9 -23
19 -35 21 -35 7z"/>
<path d="M2580 1600 c0 -5 5 -10 10 -10 6 0 10 5 10 10 0 6 -4 10 -10 10 -5 0
-10 -4 -10 -10z"/>
<path d="M2890 1570 c0 -5 7 -10 15 -10 8 0 15 5 15 10 0 6 -7 10 -15 10 -8 0
-15 -4 -15 -10z"/>
<path d="M2815 1560 c-16 -7 -17 -9 -3 -9 9 -1 20 4 23 9 7 11 7 11 -20 0z"/>
<path d="M2740 1475 c-19 -20 -20 -25 -8 -25 9 0 19 -6 22 -12 3 -7 3 -2 0 11
-4 14 -1 27 7 32 7 4 11 10 8 13 -3 3 -16 -5 -29 -19z"/>
<path d="M2790 1470 c20 -13 33 -13 25 0 -3 6 -14 10 -23 10 -15 0 -15 -2 -2
-10z"/>
<path d="M3350 2300 c0 -5 5 -10 11 -10 5 0 7 5 4 10 -3 6 -8 10 -11 10 -2 0
-4 -4 -4 -10z"/>
<path d="M2040 1986 c0 -8 5 -18 10 -21 6 -4 10 -3 9 2 -4 20 2 27 12 13 9
-13 10 -13 6 0 -5 20 -37 26 -37 6z"/>
<path d="M2087 1966 c-4 -10 -1 -13 8 -10 7 3 15 -2 18 -13 4 -14 5 -15 6 -2
2 24 -25 44 -32 25z"/>
<path d="M2055 1910 c3 -5 13 -10 21 -10 8 0 14 5 14 10 0 6 -9 10 -21 10 -11
0 -17 -4 -14 -10z"/>
<path d="M3731 1044 c0 -11 3 -14 6 -6 3 7 2 16 -1 19 -3 4 -6 -2 -5 -13z"/>
<path d="M3725 1000 c-3 -5 -1 -10 4 -10 6 0 11 5 11 10 0 6 -2 10 -4 10 -3 0
-8 -4 -11 -10z"/>
<path d="M3710 960 c-21 -7 -21 -8 -5 -9 11 0 27 4 35 9 18 11 5 11 -30 0z"/>
<path d="M3738 923 c7 -3 16 -2 19 1 4 3 -2 6 -13 5 -11 0 -14 -3 -6 -6z"/>
<path d="M3855 540 c-3 -5 -1 -10 4 -10 6 0 11 5 11 10 0 6 -2 10 -4 10 -3 0
-8 -4 -11 -10z"/>
<path d="M3801 526 c-9 -11 -9 -16 0 -22 8 -4 9 -3 5 4 -9 16 7 15 22 0 7 -7
12 -9 12 -4 0 4 -6 14 -14 21 -12 12 -16 12 -25 1z"/>
<path d="M3916 507 c3 -10 9 -15 12 -12 3 3 0 11 -7 18 -10 9 -11 8 -5 -6z"/>
<path d="M3995 510 c-12 -4 -27 -15 -34 -24 -11 -14 -11 -16 3 -16 9 0 16 -8
16 -20 0 -21 24 -28 35 -10 3 6 0 10 -7 10 -7 0 2 9 20 20 17 11 32 27 32 35
0 20 -10 19 -26 -2 -13 -17 -14 -17 -8 0 7 19 0 20 -31 7z"/>
<path d="M3510 569 c0 -5 5 -7 10 -4 6 3 10 8 10 11 0 2 -4 4 -10 4 -5 0 -10
-5 -10 -11z"/>
<path d="M3510 483 c0 -15 19 -37 26 -31 3 4 -1 14 -10 23 -9 9 -16 13 -16 8z"/>
<path d="M3536 425 c-3 -9 0 -15 9 -15 16 0 20 16 6 24 -5 3 -11 -1 -15 -9z"/>
<path d="M3544 385 c-17 -13 -17 -14 -1 -15 9 0 17 5 17 11 0 6 6 9 13 7 6 -3
12 -11 12 -18 0 -7 10 -14 23 -15 27 -2 26 -3 3 23 -22 26 -40 28 -67 7z"/>
<path d="M3545 340 c3 -5 8 -10 11 -10 2 0 4 5 4 10 0 6 -5 10 -11 10 -5 0 -7
-4 -4 -10z"/>
<path d="M3573 326 c-10 -11 -9 -15 3 -20 26 -10 34 -7 34 14 0 23 -19 26 -37
6z"/>
<path d="M3659 303 c-1 -5 -1 -11 0 -15 0 -5 -9 -8 -21 -9 -22 -1 -22 -1 2 -9
37 -12 60 -11 60 1 0 6 -7 8 -16 5 -12 -4 -14 -1 -9 14 4 11 2 20 -4 20 -6 0
-12 -3 -12 -7z"/>
<path d="M3716 245 c4 -8 8 -15 10 -15 2 0 4 7 4 15 0 8 -4 15 -10 15 -5 0 -7
-7 -4 -15z"/>
<path d="M3755 240 c-3 -6 1 -7 9 -4 18 7 21 14 7 14 -6 0 -13 -4 -16 -10z"/>
<path d="M86 3598 c-15 -18 -34 -56 -42 -85 -8 -28 -21 -57 -29 -63 -8 -7 -15
-19 -15 -28 0 -33 50 32 65 86 9 30 26 67 37 83 30 41 17 46 -16 7z"/>
<path d="M10 3531 c0 -6 4 -13 10 -16 6 -3 7 1 4 9 -7 18 -14 21 -14 7z"/>
<path d="M3138 2070 c-51 -52 -57 -81 -24 -124 31 -42 34 -94 7 -127 -19 -23
-21 -23 -48 -9 -24 14 -42 38 -56 75 -3 6 -8 7 -12 3 -14 -13 15 -74 46 -92
41 -24 73 -15 93 28 23 48 20 84 -9 122 -14 18 -25 40 -25 49 0 9 20 37 45 62
25 24 45 46 45 49 0 14 -30 -4 -62 -36z"/>
<path d="M1611 1868 c-29 -57 -51 -142 -51 -199 0 -65 -9 -101 -31 -129 -16
-21 -20 -23 -29 -10 -6 8 -8 33 -5 56 6 40 -1 74 -14 74 -12 0 -12 -120 0
-141 15 -29 49 -20 71 17 13 22 22 68 29 145 7 86 16 126 35 167 30 64 27 80
-5 20z"/>
<path d="M4704 1295 c8 -8 18 -15 22 -15 3 0 1 7 -6 15 -7 8 -17 15 -22 15 -5
0 -3 -7 6 -15z"/>
<path d="M4448 1233 c7 -3 16 -2 19 1 4 3 -2 6 -13 5 -11 0 -14 -3 -6 -6z"/>
</g>
</svg>
